<svg id="Лого_2" data-name="Лого 2" xmlns="http://www.w3.org/2000/svg" xmlns:xlink="http://www.w3.org/1999/xlink"
     width="311.33" height="114" viewBox="0 0 311.33 114">
    <defs>
        <style>
            .cls-1, .cls-10, .cls-7, .cls-8, .cls-9 {
            fill: none;
            }

            .cls-1 {
            stroke: #323232;
            stroke-width: 0.75px;
            }

            .cls-2 {
            fill: #4b1b64;
            }

            .cls-3 {
            fill: #faccff;
            }

            .cls-4 {
            fill: #f7a9ff;
            }

            .cls-5 {
            fill: url(#Безымянный_градиент_28);
            }

            .cls-6 {
            fill: url(#Безымянный_градиент_6);
            }

            .cls-10, .cls-7, .cls-8, .cls-9 {
            stroke: #4b1b64;
            stroke-linecap: round;
            }

            .cls-7, .cls-8 {
            stroke-width: 1.5px;
            }

            .cls-8 {
            stroke-dasharray: 3.2 3.2;
            }

            .cls-10 {
            stroke-dasharray: 2.91 2.91;
            }

            .cls-11 {
            fill: #7132ba;
            }
        </style>
        <linearGradient id="Безымянный_градиент_28" data-name="Безымянный градиент 28" x1="63.12" y1="50.29" x2="92.49"
                        y2="50.29" gradientUnits="userSpaceOnUse">
            <stop offset="0" stop-color="#9e4fc9"/>
            <stop offset="1" stop-color="#6129dd"/>
        </linearGradient>
        <linearGradient id="Безымянный_градиент_6" data-name="Безымянный градиент 6" x1="75.82" y1="72.35" x2="105.19"
                        y2="72.35" gradientUnits="userSpaceOnUse">
            <stop offset="0.2" stop-color="#692d8a"/>
            <stop offset="1" stop-color="#552191"/>
        </linearGradient>
    </defs>
    <title>Лого</title>
    <g>
        <g>
            <line class="cls-1" x1="118.72" y1="85.01" x2="118.72" y2="26.99"/>
            <g>
                <g>
                    <path class="cls-2"
                          d="M134.55,51.18h-3.18l-5.87-17.6h4l3.6,11.8,4-11.85h2.8l4,11.85,3.6-11.8h3.92l-5.9,17.6h-3.18L138.45,39.5Z"/>
                    <path class="cls-2" d="M166.9,51.08H153.77V33.58h12.85V36.8h-9.25v3.38h7.45v3.17h-7.45v4.5h9.52Z"/>
                    <path class="cls-2"
                          d="M178.57,51.08h-8.8V33.58H178a6,6,0,0,1,3.86,1.15A3.9,3.9,0,0,1,183.3,38a3.72,3.72,0,0,1-.62,2.17,3.59,3.59,0,0,1-1.58,1.3A4.48,4.48,0,0,1,183.6,43a4.63,4.63,0,0,1,1,3.13A4.46,4.46,0,0,1,183,49.7,6.63,6.63,0,0,1,178.57,51.08Zm-5.2-14.5v3.85h4.05a2.79,2.79,0,0,0,1.76-.5,1.68,1.68,0,0,0,.64-1.4,1.74,1.74,0,0,0-.64-1.44,2.74,2.74,0,0,0-1.76-.51Zm0,6.83V48h4.52a3.33,3.33,0,0,0,2.1-.59,2,2,0,0,0,.75-1.69A2.05,2.05,0,0,0,180,44a3.28,3.28,0,0,0-2.1-.6Z"/>
                    <path class="cls-2"
                          d="M199.85,51.38a12.29,12.29,0,0,1-3.62-.54,8.6,8.6,0,0,1-2.77-1.34V48.18a9.26,9.26,0,0,0,2.67,1.48,10.16,10.16,0,0,0,3.63.63,6.38,6.38,0,0,0,3.73-1,3.19,3.19,0,0,0,1.48-2.75,3.09,3.09,0,0,0-1-2.32,4.49,4.49,0,0,0-1.2-.73,10.23,10.23,0,0,0-1.4-.55q-.35-.13-1.65-.48l-1.87-.55q-.9-.35-1.53-.65a4.26,4.26,0,0,1-1.7-1.41,4.49,4.49,0,0,1-.6-2.21,3.79,3.79,0,0,1,1.52-3.07,6.63,6.63,0,0,1,4.27-1.25,9.53,9.53,0,0,1,5.3,1.47V36a9.2,9.2,0,0,0-5.25-1.6,5.73,5.73,0,0,0-3.48.91,2.84,2.84,0,0,0,.17,4.79,5.88,5.88,0,0,0,1,.48,10.69,10.69,0,0,0,1.08.38l1.2.35.53.15L202,42a8.67,8.67,0,0,1,1.52.65,4.69,4.69,0,0,1,1.38.9,4.07,4.07,0,0,1,1.2,3,4.17,4.17,0,0,1-1.83,3.6A7.65,7.65,0,0,1,199.85,51.38Z"/>
                    <path class="cls-2" d="M215.65,51.08H214.5V34.65h-6.27V33.58h13.7v1.08h-6.27Z"/>
                    <path class="cls-2"
                          d="M222.37,51.08h-1.22l7.95-17.6h1.08l7.9,17.6h-1.2l-2.32-5.15H224.7ZM229.62,35l-4.52,10h9Z"/>
                    <path class="cls-2"
                          d="M242.67,51.08h-1.15V33.58h7.28a5.76,5.76,0,0,1,4,1.27,4.81,4.81,0,0,1,0,6.86,5.73,5.73,0,0,1-4,1.29h-6.13Zm0-16.42v7.27h6a4.87,4.87,0,0,0,3.21-1,3.74,3.74,0,0,0,0-5.37,4.88,4.88,0,0,0-3.21-.95Z"/>
                </g>
                <g>
                    <path class="cls-2"
                          d="M129.49,68.17h-.35V66.65h.47a4.85,4.85,0,0,0,.73-3v-.46H133v3.49h.74v1.52h-.35V67h-3.93Zm.54-1.52h2.65V63.49h-2v.27A5.2,5.2,0,0,1,130,66.65Z"/>
                    <path class="cls-2" d="M135.09,67h-.34V63.16h.36v3.27l2.74-3.27h.33V67h-.36V63.71Z"/>
                    <path class="cls-2"
                          d="M140.8,67.07a3.2,3.2,0,0,1-1.38-.27v-.36a3,3,0,0,0,1.34.3,2,2,0,0,0,1-.23.69.69,0,0,0,.38-.61.65.65,0,0,0-.32-.57,1.55,1.55,0,0,0-.86-.21h-.64v-.33H141a1.3,1.3,0,0,0,.76-.19.57.57,0,0,0,.27-.48.58.58,0,0,0-.32-.53,1.75,1.75,0,0,0-.88-.18,3.32,3.32,0,0,0-1.27.26v-.35a3.47,3.47,0,0,1,1.33-.24,2,2,0,0,1,1.08.27.83.83,0,0,1,.42.72.91.91,0,0,1-.71.87,1,1,0,0,1,.87,1,1,1,0,0,1-.47.84A2.22,2.22,0,0,1,140.8,67.07Z"/>
                    <path class="cls-2"
                          d="M144.9,67.07a1.71,1.71,0,0,1-1-.33,1.1,1.1,0,0,1-.43-.92,1.07,1.07,0,0,1,.45-.9,1.81,1.81,0,0,1,1.14-.34,2.81,2.81,0,0,1,1.5.42v-.5q0-1.09-1.36-1.09a2.29,2.29,0,0,0-1.3.41v-.37a2.46,2.46,0,0,1,1.36-.38,1.89,1.89,0,0,1,1.21.36,1.25,1.25,0,0,1,.44,1v1.7a.64.64,0,0,0,.11.4.36.36,0,0,0,.3.15.49.49,0,0,0,.22,0v.3a.72.72,0,0,1-.76-.11.72.72,0,0,1-.2-.49A2.06,2.06,0,0,1,144.9,67.07Zm.1-.34a1.78,1.78,0,0,0,.86-.22,2,2,0,0,0,.65-.54v-.63a2.54,2.54,0,0,0-1.4-.45,1.6,1.6,0,0,0-1,.25.84.84,0,0,0,0,1.35A1.47,1.47,0,0,0,145,66.74Z"/>
                    <path class="cls-2"
                          d="M148.81,67h-.34V63.16h.36v3.27l2.74-3.27h.33V67h-.36V63.71Zm1.37-4.46a1.27,1.27,0,0,1-.9-.32,1.07,1.07,0,0,1-.34-.82h.33a.78.78,0,0,0,.25.6.94.94,0,0,0,.66.23.9.9,0,0,0,.65-.24.79.79,0,0,0,.25-.6h.33a1.07,1.07,0,0,1-.35.82A1.23,1.23,0,0,1,150.17,62.51Z"/>
                    <path class="cls-2" d="M153.7,67h-.36V63.16h.36v1.69h2.66V63.16h.36V67h-.36v-1.8H153.7Z"/>
                    <path class="cls-2" d="M157.95,68.19h-.31l.61-1.91h.45Z"/>
                    <path class="cls-2"
                          d="M164,63.07a1.82,1.82,0,0,1,1.4.59,2.1,2.1,0,0,1,0,2.82,2,2,0,0,1-3-.18v2.28h-.36V63.16h.36v.67A1.85,1.85,0,0,1,164,63.07Zm-.06.34a1.67,1.67,0,0,0-.91.26,1.53,1.53,0,0,0-.6.68v1.44a1.6,1.6,0,0,0,.61.68,1.64,1.64,0,0,0,.9.27,1.55,1.55,0,0,0,1.17-.48,1.65,1.65,0,0,0,.47-1.19,1.6,1.6,0,0,0-.47-1.18A1.56,1.56,0,0,0,164,63.4Z"/>
                    <path class="cls-2"
                          d="M168.28,67.07a1.71,1.71,0,0,1-1-.33,1.1,1.1,0,0,1-.43-.92,1.07,1.07,0,0,1,.45-.9,1.81,1.81,0,0,1,1.14-.34,2.81,2.81,0,0,1,1.5.42v-.5q0-1.09-1.36-1.09a2.28,2.28,0,0,0-1.3.41v-.37a2.46,2.46,0,0,1,1.36-.38,1.89,1.89,0,0,1,1.21.36,1.25,1.25,0,0,1,.44,1v1.7a.64.64,0,0,0,.11.4.36.36,0,0,0,.3.15.5.5,0,0,0,.22,0v.3a.72.72,0,0,1-.76-.11.73.73,0,0,1-.2-.49A2.06,2.06,0,0,1,168.28,67.07Zm.1-.34a1.77,1.77,0,0,0,.86-.22,2,2,0,0,0,.65-.54v-.63a2.54,2.54,0,0,0-1.4-.45,1.6,1.6,0,0,0-1,.25.84.84,0,0,0,0,1.35A1.47,1.47,0,0,0,168.38,66.74Z"/>
                    <path class="cls-2"
                          d="M173,67.07a3.2,3.2,0,0,1-1.38-.27v-.36a3,3,0,0,0,1.34.3,2,2,0,0,0,1-.23.69.69,0,0,0,.38-.61.65.65,0,0,0-.32-.57,1.54,1.54,0,0,0-.86-.21h-.64v-.33h.64a1.3,1.3,0,0,0,.76-.19.57.57,0,0,0,.27-.48.58.58,0,0,0-.32-.53,1.75,1.75,0,0,0-.88-.18,3.32,3.32,0,0,0-1.27.26v-.35a3.47,3.47,0,0,1,1.33-.24,2,2,0,0,1,1.08.27.82.82,0,0,1,.42.72.91.91,0,0,1-.71.87,1,1,0,0,1,.87,1,1,1,0,0,1-.47.84A2.22,2.22,0,0,1,173,67.07Z"/>
                    <path class="cls-2"
                          d="M177.91,63.07a1.82,1.82,0,0,1,1.4.59,2.1,2.1,0,0,1,0,2.82,2,2,0,0,1-3-.18v2.28H176V63.16h.36v.67A1.85,1.85,0,0,1,177.91,63.07Zm-.06.34a1.67,1.67,0,0,0-.91.26,1.53,1.53,0,0,0-.6.68v1.44a1.6,1.6,0,0,0,.61.68,1.64,1.64,0,0,0,.9.27,1.55,1.55,0,0,0,1.17-.48,1.65,1.65,0,0,0,.47-1.19,1.6,1.6,0,0,0-.47-1.18A1.56,1.56,0,0,0,177.85,63.4Z"/>
                    <path class="cls-2"
                          d="M182.16,67.07a1.71,1.71,0,0,1-1-.33,1.1,1.1,0,0,1-.43-.92,1.07,1.07,0,0,1,.45-.9,1.81,1.81,0,0,1,1.14-.34,2.81,2.81,0,0,1,1.5.42v-.5q0-1.09-1.36-1.09a2.28,2.28,0,0,0-1.3.41v-.37a2.46,2.46,0,0,1,1.36-.38,1.89,1.89,0,0,1,1.21.36,1.25,1.25,0,0,1,.44,1v1.7a.64.64,0,0,0,.11.4.36.36,0,0,0,.3.15.5.5,0,0,0,.22,0v.3a.72.72,0,0,1-.76-.11.73.73,0,0,1-.2-.49A2.06,2.06,0,0,1,182.16,67.07Zm.1-.34a1.77,1.77,0,0,0,.86-.22,2,2,0,0,0,.65-.54v-.63a2.54,2.54,0,0,0-1.4-.45,1.6,1.6,0,0,0-1,.25.84.84,0,0,0,0,1.35A1.47,1.47,0,0,0,182.26,66.74Z"/>
                    <path class="cls-2"
                          d="M187.58,67.07a1.83,1.83,0,0,1-1.5-.68,2.89,2.89,0,0,1-.55-1.87,2.83,2.83,0,0,1,.86-2.33,4.42,4.42,0,0,1,1.81-.72l.87-.18v.36l-1.34.29a2.47,2.47,0,0,0-1.38.75,2.52,2.52,0,0,0-.47,1.65,1.85,1.85,0,0,1,.72-.75,2.12,2.12,0,0,1,1.09-.28,1.75,1.75,0,0,1,1.79,1.8,1.91,1.91,0,0,1-.55,1.41A1.86,1.86,0,0,1,187.58,67.07Zm0-.34a1.46,1.46,0,0,0,1.07-.45,1.55,1.55,0,0,0,.46-1.15,1.38,1.38,0,0,0-.45-1.07,1.52,1.52,0,0,0-1.06-.41,1.73,1.73,0,0,0-1.06.35,2,2,0,0,0-.65.82,2.2,2.2,0,0,0,.48,1.4A1.51,1.51,0,0,0,187.59,66.74Z"/>
                    <path class="cls-2"
                          d="M193.84,66.49a2.12,2.12,0,0,1-2.92,0,2.07,2.07,0,0,1,0-2.83,2.1,2.1,0,0,1,2.92,0,2.05,2.05,0,0,1,0,2.83Zm-2.64-.22a1.64,1.64,0,0,0,1.18.47,1.6,1.6,0,0,0,1.18-.47,1.72,1.72,0,0,0,0-2.38,1.58,1.58,0,0,0-1.18-.48,1.61,1.61,0,0,0-1.18.48,1.74,1.74,0,0,0,0,2.38Z"/>
                    <path class="cls-2" d="M196.75,67h-.36V63.49h-1.46v-.33h3.27v.33h-1.46Z"/>
                    <path class="cls-2"
                          d="M199.52,67h-.36V63.16h.36v1.61l2-1.61h.53l-2.15,1.73L202.34,67h-.54l-2.28-2Z"/>
                    <path class="cls-2"
                          d="M204.35,67.07a1.71,1.71,0,0,1-1-.33,1.1,1.1,0,0,1-.43-.92,1.07,1.07,0,0,1,.45-.9,1.81,1.81,0,0,1,1.14-.34A2.81,2.81,0,0,1,206,65v-.5q0-1.09-1.36-1.09a2.28,2.28,0,0,0-1.3.41v-.37a2.46,2.46,0,0,1,1.36-.38,1.89,1.89,0,0,1,1.21.36,1.25,1.25,0,0,1,.44,1v1.7a.64.64,0,0,0,.11.4.36.36,0,0,0,.3.15.5.5,0,0,0,.22,0v.3a.72.72,0,0,1-.76-.11.73.73,0,0,1-.2-.49A2.06,2.06,0,0,1,204.35,67.07Zm.1-.34a1.77,1.77,0,0,0,.86-.22A2,2,0,0,0,206,66v-.63a2.54,2.54,0,0,0-1.4-.45,1.6,1.6,0,0,0-1,.25.84.84,0,0,0,0,1.35A1.47,1.47,0,0,0,204.45,66.74Z"/>
                    <path class="cls-2" d="M130,77h-.34V73.16h.36v3.27l2.74-3.27h.33V77h-.36V73.71Z"/>
                    <path class="cls-2" d="M137.07,77h-.36V73.16H140V77h-.36V73.49h-2.6Z"/>
                    <path class="cls-2"
                          d="M143.41,73.07a1.81,1.81,0,0,1,1.4.59,2.1,2.1,0,0,1,0,2.82,2,2,0,0,1-3-.18v2.28h-.36V73.16h.36v.67A1.85,1.85,0,0,1,143.41,73.07Zm-.06.34a1.67,1.67,0,0,0-.91.26,1.53,1.53,0,0,0-.6.68v1.44a1.6,1.6,0,0,0,.61.68,1.64,1.64,0,0,0,.9.27,1.56,1.56,0,0,0,1.17-.48,1.65,1.65,0,0,0,.47-1.19,1.61,1.61,0,0,0-.47-1.18A1.56,1.56,0,0,0,143.35,73.4Z"/>
                    <path class="cls-2"
                          d="M149.72,76.49a2.12,2.12,0,0,1-2.92,0,2.07,2.07,0,0,1,0-2.83,2.1,2.1,0,0,1,2.92,0,2.05,2.05,0,0,1,0,2.83Zm-2.64-.22a1.64,1.64,0,0,0,1.18.47,1.6,1.6,0,0,0,1.18-.47,1.72,1.72,0,0,0,0-2.38,1.58,1.58,0,0,0-1.18-.48,1.61,1.61,0,0,0-1.18.48,1.74,1.74,0,0,0,0,2.38Z"/>
                    <path class="cls-2"
                          d="M151.1,78.17h-.35V76.65h.47a4.85,4.85,0,0,0,.73-3v-.46h2.69v3.49h.74v1.52H155V77H151.1Zm.54-1.52h2.65V73.49h-2v.27A5.2,5.2,0,0,1,151.64,76.65Z"/>
                    <path class="cls-2"
                          d="M158.47,77h-2.1V73.16h1.94a1.21,1.21,0,0,1,.82.26.89.89,0,0,1,.3.7.82.82,0,0,1-.5.85.94.94,0,0,1,.75,1,.92.92,0,0,1-.32.74A1.33,1.33,0,0,1,158.47,77Zm-1.74-3.49v1.36h1.49a1,1,0,0,0,.63-.18.69.69,0,0,0,0-1,1,1,0,0,0-.63-.18Zm0,1.69v1.47h1.67a1.07,1.07,0,0,0,.68-.19.74.74,0,0,0,0-1.09,1.07,1.07,0,0,0-.68-.19Z"/>
                    <path class="cls-2" d="M161.27,77h-.34V73.16h.36v3.27L164,73.16h.33V77H164V73.71Z"/>
                    <path class="cls-2"
                          d="M165.81,77h-.5l2.13-2-1.93-1.77H166l1.81,1.68V73.16h.35v1.67L170,73.16h.48l-1.92,1.77,2.12,2h-.5l-2-1.92V77h-.35V75Z"/>
                    <path class="cls-2"
                          d="M173.06,77.07a2.06,2.06,0,0,1-1.49-.56,1.91,1.91,0,0,1-.59-1.44,2,2,0,0,1,.53-1.43,1.92,1.92,0,0,1,2.2-.39,1.37,1.37,0,0,1,.55.51,2.31,2.31,0,0,1,.38,1.24v.12h-3.3a1.54,1.54,0,0,0,.5,1.17,1.81,1.81,0,0,0,1.26.45,2.18,2.18,0,0,0,1.23-.36v.35A2.06,2.06,0,0,1,173.06,77.07Zm-1.71-2.26h2.93a1.38,1.38,0,0,0-.08-.46,1.79,1.79,0,0,0-.24-.45,1.14,1.14,0,0,0-.44-.36,1.47,1.47,0,0,0-.65-.14,1.42,1.42,0,0,0-1.08.43A1.52,1.52,0,0,0,171.35,74.81Z"/>
                    <path class="cls-2" d="M176.16,77h-.36V73.16h.36v1.69h2.66V73.16h.36V77h-.36v-1.8h-2.66Z"/>
                    <path class="cls-2" d="M181,77h-.34V73.16H181v3.27l2.74-3.27h.33V77h-.36V73.71Z"/>
                    <path class="cls-2"
                          d="M187.3,77.07a2.06,2.06,0,0,1-1.49-.56,1.91,1.91,0,0,1-.59-1.44,2,2,0,0,1,.53-1.43,1.92,1.92,0,0,1,2.2-.39,1.37,1.37,0,0,1,.55.51,2.31,2.31,0,0,1,.38,1.24v.12h-3.3a1.54,1.54,0,0,0,.5,1.17,1.81,1.81,0,0,0,1.26.45,2.18,2.18,0,0,0,1.23-.36v.35A2.06,2.06,0,0,1,187.3,77.07Zm-1.71-2.26h2.93a1.38,1.38,0,0,0-.08-.46,1.79,1.79,0,0,0-.24-.45,1.14,1.14,0,0,0-.44-.36,1.47,1.47,0,0,0-.65-.14,1.42,1.42,0,0,0-1.08.43A1.52,1.52,0,0,0,185.59,74.81Z"/>
                    <path class="cls-2"
                          d="M193.91,77.07a1.91,1.91,0,0,1-1.44-.58,2.06,2.06,0,0,1,0-2.84,1.92,1.92,0,0,1,1.45-.58,2.26,2.26,0,0,1,1.15.3v.35A2.18,2.18,0,0,0,194,73.4a1.66,1.66,0,0,0-1.21.48,1.72,1.72,0,0,0,0,2.38,1.69,1.69,0,0,0,1.21.47,2,2,0,0,0,1.18-.36v.36A2.17,2.17,0,0,1,193.91,77.07Z"/>
                    <path class="cls-2"
                          d="M197.52,77.07a1.71,1.71,0,0,1-1-.33,1.1,1.1,0,0,1-.43-.92,1.07,1.07,0,0,1,.45-.9,1.81,1.81,0,0,1,1.14-.34,2.81,2.81,0,0,1,1.5.42v-.5q0-1.09-1.36-1.09a2.29,2.29,0,0,0-1.3.41v-.37a2.46,2.46,0,0,1,1.36-.38,1.89,1.89,0,0,1,1.21.36,1.25,1.25,0,0,1,.44,1v1.7a.64.64,0,0,0,.11.4.36.36,0,0,0,.3.15.49.49,0,0,0,.22,0v.3a.72.72,0,0,1-.76-.11.72.72,0,0,1-.2-.49A2.06,2.06,0,0,1,197.52,77.07Zm.1-.34a1.78,1.78,0,0,0,.86-.22,2,2,0,0,0,.65-.54v-.63a2.54,2.54,0,0,0-1.4-.45,1.6,1.6,0,0,0-1,.25.84.84,0,0,0,0,1.35A1.47,1.47,0,0,0,197.62,76.74Z"/>
                    <path class="cls-2"
                          d="M201.42,77h-.34V73.16h.36v3.27l2.74-3.27h.33V77h-.36V73.71Zm1.37-4.46a1.27,1.27,0,0,1-.9-.32,1.07,1.07,0,0,1-.34-.82h.33a.78.78,0,0,0,.25.6.94.94,0,0,0,.66.23.9.9,0,0,0,.65-.24.79.79,0,0,0,.25-.6H204a1.07,1.07,0,0,1-.35.82A1.23,1.23,0,0,1,202.79,72.51Z"/>
                    <path class="cls-2" d="M207.28,77h-.36V73.49h-1.46v-.33h3.27v.33h-1.46Z"/>
                    <path class="cls-2"
                          d="M212.76,76.49a2.12,2.12,0,0,1-2.92,0,2.07,2.07,0,0,1,0-2.83,2.1,2.1,0,0,1,2.92,0,2.05,2.05,0,0,1,0,2.83Zm-2.64-.22a1.64,1.64,0,0,0,1.18.47,1.6,1.6,0,0,0,1.18-.47,1.72,1.72,0,0,0,0-2.38,1.58,1.58,0,0,0-1.18-.48,1.61,1.61,0,0,0-1.18.48,1.74,1.74,0,0,0,0,2.38Z"/>
                    <path class="cls-2"
                          d="M216.59,77h-2.1V73.16h1.94a1.21,1.21,0,0,1,.82.26.89.89,0,0,1,.3.7.82.82,0,0,1-.5.85.94.94,0,0,1,.75,1,.92.92,0,0,1-.32.74A1.33,1.33,0,0,1,216.59,77Zm-1.74-3.49v1.36h1.49a1,1,0,0,0,.63-.18.69.69,0,0,0,0-1,1,1,0,0,0-.63-.18Zm0,1.69v1.47h1.67a1.07,1.07,0,0,0,.68-.19.74.74,0,0,0,0-1.09,1.07,1.07,0,0,0-.68-.19Z"/>
                </g>
            </g>
        </g>
        <g>
            <g>
                <polygon class="cls-3" points="79.77 27.13 92.49 34.47 63.12 51.43 50.4 44.09 79.77 27.13"/>
                <polygon class="cls-4" points="92.48 49.18 105.19 56.53 75.83 73.48 63.11 66.14 92.48 49.18"/>
                <polygon class="cls-5" points="63.12 51.43 63.12 66.11 92.49 49.16 92.49 34.47 63.12 51.43"/>
                <polygon class="cls-6" points="75.83 73.48 75.83 88.17 105.19 71.21 105.19 56.53 75.83 73.48"/>
                <g>
                    <path class="cls-7" d="M106.79,80.74q0-.77,0-1.5"/>
                    <path class="cls-8" d="M106.6,76C105.06,61.2,94.78,57,89.3,57.85a6.16,6.16,0,0,0-2.29.88"/>
                    <path class="cls-7" d="M85.73,59.69a12.42,12.42,0,0,0-1.05,1.07"/>
                </g>
                <g>
                    <path class="cls-9" d="M84.66,60.89q0-.76,0-1.5"/>
                    <path class="cls-10" d="M84.58,56.49C83.31,35.62,70.07,28.83,62,29.11"/>
                    <path class="cls-9" d="M60.54,29.24h-.06a7.84,7.84,0,0,0-1.39.36"/>
                    <polygon class="cls-2" points="59.21 27.33 54.09 33.28 61.5 30.69 59.21 27.33"/>
                </g>
            </g>
            <polygon class="cls-11"
                     points="50.4 44.09 50.4 73.48 75.83 88.17 75.83 73.48 63.12 66.11 63.12 51.43 50.4 44.09"/>
        </g>
    </g>
</svg>
